<svg xmlns="http://www.w3.org/2000/svg" width="1379" height="1199"><path fill="#fafcfb" d="M1299 35c3.96 1.75 7.97 3.4 12 5 9.42 4.26 16.94 9.53 25 16 7.29 5.73 14.58 11.43 22 17v2l4 2c5.1 6.44 8.06 12.03 10 20l1 4c.98 14.96-4.42 28.4-9.55 42.17-11.16 31.07-20.7 62.83-30.13 94.46-1.35 4.49-2.84 8.93-4.32 13.37-5.43 18.12-10.25 36.4-15 54.71-2.44 9.43-4.97 18.81-7.69 28.17-3.66 12.87-6.48 25.9-9.32 38.98-1.41 6.46-2.85 12.91-4.34 19.36-12.92 56.72-22.59 114.05-29.65 171.78-.28 2.28-.57 4.55-.86 6.89-1.82 15.11-3.05 30.23-4.1 45.41-3.83 28.4-24.74 37.83-48.66 47.95-10.93 4.71-21.16 9.69-31.38 15.75-4.99 2.68-9.99 5.34-15 8-25.23 13.61-48.74 29.26-72 46-1.84 1.32-3.67 2.64-5.56 4a540 540 0 0 0-31.44 25l-7 6c-3.45 5.18-1.95 10.99-1.89 16.99-.81 35.9-29.36 68.38-65.05 72.89-9.38 2.82-11.77 7.03-17.06 15.12l-4.06 6-3.94 6c-6.5 9.6-13.35 18.87-20.35 28.11C931 919 927.49 923.99 924 929c-3.26 4.52-6.54 9.03-9.82 13.54-2.22 3.12-4.37 6.3-6.46 9.52C905 956 905 956 903 956l-2 4c-3.98 5.69-7.98 11.35-12 17-2.02 2.87-4.04 5.75-6.06 8.62-5.55 7.87-11.24 15.63-16.94 23.38-3.34 4.66-6.67 9.33-10 14-.75 1.03-.75 1.03-4.56 6.25C848 1034 848 1034 847 1036h-2l-2 4c-2.3 3.02-4.64 6.02-7 9-1.11 1.46-2.23 2.93-3.38 4.44-4.01 5.04-8.3 9.78-12.62 14.56l-1 2h-2v2h-2l-2 4c-4.95 4.73-9.94 9.39-15 14-1.67 1.55-3.34 3.09-5.06 4.69-6.13 5.35-12.51 10.33-18.94 15.31-1.4 1.11-2.8 2.23-4.25 3.38-11.56 8.82-23.26 17.15-35.75 24.62-1.61 1.09-3.22 2.19-4.88 3.31-9.35 5.63-19.24 10.07-29.12 14.69-3.29 1.58-6.58 3.17-9.88 4.75-89.41 42.05-197.11 42.21-289.12 8.25-2.72-.97-5.44-1.94-8.25-2.94-8.2-3.24-15.91-7.02-23.75-11.06-2.74-1.36-5.49-2.72-8.31-4.12-16.77-8.46-32.28-18.15-47.69-28.88l-6-4.06c-4-2.94-4-2.94-4-4.94l-5-2c-3.71-2.94-7.37-5.95-11-9-2.04-1.63-4.08-3.26-6.19-4.94C276 1093 276 1093 276 1091h-2v-2l-5-2c-2.39-2.62-4.72-5.29-7-8l-4.44-4.38C254 1071 254 1071 254 1069l-4-2v-2h-2c-3.06-3.62-6.05-7.3-9-11-.73-.88-.73-.88-4.44-5.31-12.05-15.03-19.14-26.36-20.56-45.69l-4-4v-2l-5-2v-2l-4-2-2-4-3-1c-4-5-4-5-4-7h-2v-2h-2c-8-10.3-8-10.3-8-14h-2c-1.97-3.06-3.85-6.17-5.69-9.31-4.31-7.32-8.74-14.53-13.31-21.69q-4.515-7.5-9-15c-4.33-7.15-8.67-14.29-13.01-21.43-2.4-3.94-4.78-7.9-7.15-11.86-2.78-4.61-5.64-9.17-8.53-13.71C102 839.5 102 839.5 102 835h-2a553 553 0 0 1-6.18-10.2c-3.2-5.44-6.47-10.84-9.76-16.24-.6-.98-.6-.98-3.63-5.97-2.87-4.67-5.77-9.32-8.68-13.97C66.69 780.5 61.84 772.26 57 764c-4.59-7.72-9.24-15.38-14-23-4.76-7.61-9.4-15.29-14-23-1.01-1.59-2.02-3.18-3.06-4.81C-6.82 655.34 1.54 585.89 41 534h2c.33-.83.33-.83 2-5 4-4 4-4 6-4v-2h2v-2h2l2-4h2v-2c15.87-12 15.87-12 19-12v-2c49.4-27.41 103.68-33.13 155-7 2.17 1.09 4.33 2.19 6.56 3.31C265 511.88 265 511.88 265 517l4 2c23.84 21.53 42.65 56.18 57.88 84.31 4.07 7.43 8.59 14.53 13.12 21.69l3.88 6.12c6.94 10.83 6.94 10.83 11.12 11.88l2-5c1.58-3.24 3.19-6.47 4.81-9.69.85-1.69 1.71-3.39 2.58-5.13l5.19-10.29c2.19-4.43 4.28-8.91 6.36-13.39 3.09-6.48 6.28-12.42 10.06-18.5 3.49-6.28 6.79-12.58 10-19 1.64-2.91 3.31-5.8 5-8.69 3.98-6.83 7.92-13.68 11.81-20.56 9.5-16.63 19.47-32.89 30.19-48.75 1.13-1.79 2.27-3.59 3.44-5.44 8.42-13.14 17.54-25.82 26.56-38.56l3.75-5.38C486.32 421 496.46 407.89 507 395c4.7-6.08 9.38-12.17 14-18.31 3-3.69 3-3.69 5-3.69l2-4c3-4 3-4 5-4l2-4c6.63-9 6.63-9 9-9l2-4c3.98-4.35 7.98-8.68 12-13l1-2h2l2-4c4.31-4.35 8.65-8.69 13-13l2-3h2v-2h2v-2l5-4 2-3h2v-2h2l1-3h2v-2c2.65-2.36 5.32-4.68 8-7l4.88-4.94C613 279 613 279 615 279v-2c5.11-4.74 10.41-8.8 16-13 .83-.82.83-.82 5-5 11.65-10 11.65-10 14-10v-2h2v-2c4-3 4-3 6-3v-2c3.61-3.07 7.29-6.05 11-9 2.33-1.86 4.66-3.71 7.06-5.62C692.03 213 692.03 213 695 213v-2c6-4 6-4 8-4v-2l5-2v-2c2.96-2.06 5.97-4.05 9-6 1.63-1.11 3.26-2.23 4.94-3.38C726 189 726 189 728 189v-2c2.94-2.08 5.96-4.06 9-6 2.1-1.36 4.21-2.72 6.38-4.12C774.46 157 774.46 157 778 157v-2c6.19-3.92 12.59-7.45 19-11 .97-.57.97-.57 5.88-3.44 26.48-15.4 54.13-29.12 82.12-41.56 1.52-.7 3.05-1.39 4.62-2.11 9.25-4.23 18.52-8.22 28.02-11.83 4.2-1.62 8.39-3.28 12.56-4.96 20.38-8.19 40.92-15.31 61.8-22.1 2.99-1.01 5.99-2.01 9.07-3.05C1036.8 43.14 1073.27 34.09 1110 26l8.81-2.06c158-33.32 158-33.32 180.19 11.06"/><path fill="#4daf50" d="M1256 49c-4.88 4.88-11.32 6.35-17.64 8.81-7.33 2.99-14.3 6.63-21.36 10.19-4.32 1.7-8.65 3.38-13 5-.99.5-.99.5-6 3-1.49.66-1.49.66-9 4-16.21 7.53-16.21 7.53-22 11l-5 2-5 3c-.75.3-.75.3-4.56 1.81-5.44 2.19-5.44 2.19-11.94 5.44-5.5 2.75-5.5 2.75-7.5 2.75v2c-3.99 1.7-7.99 3.36-12 5-1.15.66-1.15.66-7 4-8.75 5-8.75 5-11 5v2c-8 4-8 4-11 4v2l-7 2v2c-6 3-6 3-8 3v2l-5 2-8 5c-1.32.72-2.64 1.44-4 2.19-4.56 2.56-9.01 5.33-13.44 8.12C1039 161 1039 161 1037 161v2l-6 2v2c-8 4-8 4-12 5v2c-4.64 3.05-9.3 6.05-14 9l-4 3h-2v2h-3v2c-5 3-5 3-7 3v2c-9.88 6.63-9.88 6.63-14 8v2l-4 1v2c-11.98 8.66-11.98 8.66-16 10v2c-4.31 3.03-8.65 6.02-13 9-5.38 4.2-10.63 8.52-15.88 12.88C921 246 921 246 917 248v2c-3.64 2.7-7.31 5.36-11 8l-3 3h-2v2c-3.65 3.02-7.32 6.01-11 9-2.33 2.17-4.66 4.33-7.06 6.56C877 284 877 284 875 284v2c-2.63 2.38-5.31 4.7-8 7-6.83 6.19-13.54 12.43-20 19-.83.82-.83.82-5 5-1.49 1.65-2.97 3.3-4.5 5-4.78 5.31-9.8 10.29-14.88 15.31-4.4 4.46-8.53 8.95-12.62 13.69-1.86 2-3.71 4-5.62 6.06C799 363 799 363 794 370h-2l-2 4c-9.6 12-9.6 12-12 12l-2 5c-2.3 2.7-4.63 5.37-7 8l-1 2h-2l-2 6c-.83.82-.83.82-5 5-3.03 3.98-6.02 7.98-9 12-1.82 2.35-3.63 4.7-5.5 7.12C740 437 740 437 739 439h-2l-2 5c-2.28 3.37-4.62 6.7-7 10-9.65 13.46-9.65 13.46-13.5 19.38C712 477 712 477 710 477l-1 4h-2l-1 4c-3 6-3 6-5 6l-2 5c-4 7-4 7-6 7l-2 6c-2.3 3.36-4.64 6.69-7 10-3.26 5.26-6.23 10.46-9 16h-2l-2 6c-2 4-2 4-4 4l-2 6q-2.97 4.515-6 9l-4 8c-1.22 2.08-2.43 4.17-3.69 6.31C648 580 648 580 647 583h-2l-2 6c-4.65 10-4.65 10-7 10l-2 8h-2l-2 6c-2.63 5.35-5.3 10.68-8 16l-3 6h-2l-1 5c-.5.83-.5.83-3 5l-3 7c-2.67 5.33-5.33 10.67-8 16-1.51 3.18-3.01 6.37-4.5 9.56-2.72 5.78-5.54 11.37-8.56 17-3.58 6.76-6.74 13.59-9.79 20.59-3.17 7.14-6.56 14.17-9.95 21.21-1.82 3.84-3.53 7.73-5.2 11.64-2.1 4.73-4.23 9.45-6.56 14.06C555 767 555 767 552 775c-3.55 7.74-7.19 15.39-11 23l-3 7c-2.06 4.42-4.12 8.84-6.19 13.25-3.86 8.3-7.67 16.61-11.19 25.06-4.04 9.69-8.33 19.22-13.12 28.57-2.2 4.51-4.15 9.16-6.06 13.81C498 894 498 894 494 901l-1 4h-2l-2 6c-3 6-3 6-5 6l-2 6h-2l-2 6h-2l-1 4h-2l-2 5c-2.94 3.38-5.95 6.71-9 10-1.24 1.42-2.48 2.85-3.75 4.31-2.64 3-5.43 5.87-8.25 8.69l-4.5 4.69C441 970 441 970 436 972v2c-4.28 3.08-8.62 6.07-13 9-1.79 1.22-3.59 2.43-5.44 3.69-6.32 3.76-12.76 6.53-19.56 9.31l-9 4c-46.69 13.23-98.27 5.38-138-23v-2l-5-2c-3-2-3-2-3-4l-4-2-5-5c-.99-.83-.99-.83-6-5-7-8.47-7-8.47-7-11l-3-1-1-4h-2c-4-6-4-6-4-9h-2c-5.69-9.75-5.69-9.75-7-15h-2c-3-6-3-6-3-8h-2l-1-5h-2l-4-8-3-5v-2h-2c-2.06-3.63-4.05-7.3-6-11-.49-.83-.49-.83-3-5v-2l-3-1-2-7h-2c-1.75-2.87-3.4-5.8-5-8.75-.89-1.62-1.77-3.25-2.69-4.92-1.47-2.76-2.91-5.53-4.31-8.33h-2l-3-7c-1.03-1.71-2.06-3.42-3.12-5.19C144 824 144 824 143 820h-2l-3-6c-.49-.83-.49-.83-3-5v-2h-2c-1.72-2.97-3.37-5.98-5-9q-3.39-5.61-6.81-11.19c-4.04-6.6-7.99-13.21-11.81-19.93C106 761 106 761 102 756c-3-6-3-6-3-8h-2c-2.62-4.92-4.93-9.82-7-15h-2l-4-8c-1.9-3.13-3.84-6.23-5.81-9.31-1.06-1.66-2.11-3.31-3.19-5.02-2.41-3.75-4.83-7.49-7.25-11.23C65 695 65 695 65 693h-2c-2.08-4.97-4.07-9.97-6-15-.72-1.63-1.44-3.26-2.19-4.94-2.46-6.88-3.54-13.88-4.81-21.06l-1-1c-.79-21.64.16-40.93 9-61l3-7c8.53-16 8.53-16 11-16l2-4c13.95-16 13.95-16 17-16v-2c8.4-6 8.4-6 11-6v-2c24-12 24-12 32-12v-2c26.14-4.9 50.42-3.09 75 7l5 2v2l6 2c7 4 7 4 12 9l8 6v2l3 1c18.93 22.71 18.93 22.71 21 31h2c4 7 4 7 5 12h2c3 6 3 6 3 8h2c2.02 3.66 4.02 7.32 6 11 1.44 2.14 2.89 4.29 4.38 6.5C292 628 292 628 292 631h2c1.69 2.99 3.36 5.99 5 9l4 5c5.77 10.06 5.77 10.06 7 15h2l3 6 3.12 5.06C321 676 321 676 322 681h2c3.05 4.97 6.04 9.98 9 15 .53.78.53.78 3.19 4.75 3.26 4.93 6.02 10.04 8.81 15.25l2.88 5.06C350 725 350 725 350 727h2q3.105 5.955 6 12l2-5h2l1-5c3.03-7.88 6.22-15.44 10-23 .62-1.57 1.24-3.13 1.88-4.75 2.39-5.93 5.26-11.53 8.12-17.25 1.35-3.32 2.69-6.66 4-10 4.71-11 4.71-11 7-11v-5c1.95-3.36 3.96-6.69 6-10 7.35-14.38 7.35-14.38 10-21 1.54-2.99 3.11-5.97 4.69-8.94 3.21-6.04 6.3-12.09 9.31-18.25 3-5.81 3-5.81 5-5.81l1-5 5-8 1-3h2l1-5h2l2-7h2l3-9c2.6-3.71 5.27-7.38 8-11 3.6-5.66 6.62-11.27 9.56-17.31C469 522 469 522 474 517l3-6h2l2-6c1.95-3.03 3.97-6.02 6-9 1.76-2.85 3.5-5.71 5.25-8.56C497 480 497 480 499 480l2-5c1-2 1-2 3-2l2-5c1-2 1-2 3-2l2-5c2.97-4.02 5.97-8.03 9-12l1-2h2l2-4c4-7 4-7 6-7l2-4c4-6 4-6 8.56-11.06C546 416 546 416 549 411l5-5c5.31-6.18 10.53-12.4 15.56-18.81C573 383 573 383 575 383l2-4c21.82-26 21.82-26 26-26l1-4 7-6 5-7c3.9-3.66 7.21-6.6 12-9v-2c2.65-2.35 5.32-4.68 8-7l5.88-5.94C647 307 647 307 649 307v-2c2.62-2.39 5.29-4.71 8-7 7-6 7-6 8-8h2v-2l4-2 1-2 3-1 5-5 4-2v-2l6-4c4.62-3.5 8.9-6.9 13-11l5-2v-2h2v-2l6-2 1-3h3v-2c2.96-2.06 5.97-4.05 9-6 8.67-5.67 8.67-5.67 12-9 8.59-6 8.59-6 11-6v-2c12.36-8 12.36-8 15-8v-2c9.36-6 9.36-6 12-6v-2c3.28-2.08 6.63-4.06 10-6 1.64-.94 3.28-1.89 4.97-2.86 1.68-.95 3.36-1.91 5.09-2.89 6.56-3.73 13.08-7.51 19.56-11.37C851.05 163 851.05 163 856 163v-2c9-4 9-4 12-4v-2c16-8 16-8 20-8v-2c4.32-1.7 8.65-3.37 13-5 .83-.5.83-.5 5-3 3.33-1.34 6.66-2.67 10-4l8-4c1.32-.5 1.32-.5 8-3 1.46-.6 2.93-1.2 4.44-1.81 4.62-1.82 9.3-3.49 14-5.13 6.74-2.41 13.08-5.06 19.56-8.06 5.63-1.88 11.27-3.7 16.94-5.44 4.42-1.4 8.83-2.87 13.12-4.62 6.51-2.55 13.19-4.15 19.94-5.94l7-3c1.86-.41 3.71-.83 5.62-1.25 6.17-1.46 11.95-3.21 17.94-5.25 12-4.07 24.05-6.87 36.44-9.5 10.8-2.32 21.4-4.91 32-8 5.01-1.11 10.05-2.16 15.12-2.94 4.77-.73 9.53-1.6 14.26-2.56 7.52-1.48 15.02-2.49 22.62-3.5l8-2c4.18-.55 8.37-1.04 12.56-1.5 7.31-.81 14.59-1.65 21.88-2.62 4.13-.56 8.28-1.03 12.44-1.38 26.28-2.56 26.28-2.56 30.12-2.5"/><path fill="#2077b8" d="M1299 81c-4.61 13.84-16.43 26.31-25 38-1.98 2.81-3.96 5.62-5.94 8.44-3.97 5.65-8.02 11.23-12.18 16.75-3.69 4.89-7.32 9.83-10.88 14.81-6.97 9.76-14.21 19.31-21.44 28.88-5.94 7.97-11.75 16.05-17.56 24.12-3.25 4.51-6.51 9.01-9.76 13.51-2.14 2.96-4.26 5.92-6.38 8.88-7.2 10.04-14.6 19.89-22.13 29.67-3.7 4.9-7.23 9.9-10.73 14.94-3.42 4.75-6.86 9.48-10.3 14.22-2.7 3.78-2.7 3.78-3.7 5.78h-2l-2 5c-2.65 3.35-5.32 6.68-8 10-3.26 4.44-6.48 8.91-9.69 13.39-4.72 6.57-9.52 13.09-14.31 19.61-8.75 12-17.46 24.02-26.06 36.12-5.54 7.71-11.25 15.29-16.94 22.88-9 12.5-9 12.5-12 17-5.17 0-10.34-.01-15.5-.19-26.97.92-42.67 22.77-43.88 48.07 1.59 34.41 27.42 46.12 58.38 45.12 26.52-7.53 36.39-30.17 35-56-3.06-7.31-3.06-7.31-6-13 1.17-5.84 3.28-8.54 6.81-13.31 1.18-1.6 2.36-3.2 3.57-4.85 3.27-4.37 6.53-8.73 9.81-13.09 5.38-7.18 10.6-14.45 15.81-21.75 2.99-4.01 5.99-8 9-12 3.67-5 7.34-10 11-15 2.35-3.19 4.71-6.38 7.06-9.56 4.13-5.6 8.21-11.22 12.25-16.88 4.47-6.26 9.07-12.41 13.69-18.56 3.34-4.66 6.67-9.33 10-14 6.31-8.81 12.66-17.59 19.19-26.25 5.38-7.18 10.6-14.45 15.81-21.75 2.99-4.01 5.99-8 9-12 3.67-5 7.34-10 11-15 4.66-6.34 9.33-12.67 14-19 2.33-3.17 4.67-6.33 7-9.5 9.33-12.67 18.67-25.33 28-38 1.15-1.56 2.3-3.12 3.48-4.73 2.39-3.23 4.77-6.47 7.16-9.7 7.97-10.79 15.94-21.59 23.5-32.68 8.45-12.29 8.45-12.29 12.86-13.39-1.57 7.04-3.35 12.42-6 19-1.67 5.33-3.34 10.67-5 16-2.01 6.11-4.03 12.21-6.06 18.31-.51 1.54-.51 1.54-3.1 9.3-1.64 4.86-3.32 9.7-5.08 14.51-2.35 6.52-4.01 13.18-5.76 19.88-1.4 4.19-2.82 8.38-4.25 12.56-3.18 9.75-5.99 19.57-8.75 29.44-.57 2.03-1.14 4.07-1.73 6.16-1.18 4.24-2.37 8.48-3.55 12.72-1.55 5.52-3.13 11.04-4.72 16.56-4.99 17.43-9.67 34.95-14 52.56-.42 1.67-.85 3.34-1.28 5.06-3.5 13.83-3.5 13.83-4.68 19.76-1.19 5.94-2.62 11.8-4.04 17.68-3.36 14.34-6.35 28.74-9.25 43.19-.21 1.05-.21 1.05-1.29 6.38-2.44 12.28-4.55 24.56-6.46 36.93-.66 3.22-1.32 6.44-2 9.75-1.88 9.18-3.14 18.36-4.29 27.65-1.05 8.23-2.4 16.41-3.71 24.6-1.03 7-2.02 14-3 21l-1.12 7.94c-.87 7.01-1.39 14.01-1.88 21.06l-1 3c-.69 7.72-1.3 15.45-1.89 23.17-1.17 14.65-1.17 14.65-12.67 19.21-6.68 2.65-13 5.4-19.44 8.62h-3v2l-9 4c-4.33 2.33-8.67 4.66-13 7l-7 3c-35.21 19.19-69.47 41.23-101 66-2.33 1.82-4.66 3.63-7.06 5.5-5.28 4.18-10.49 8.41-15.69 12.69C1021 734 1021 734 1019 734v2c-6 5-6 5-8 5v2h-2v2c-3.64 3.03-7.31 6.03-11 9-5.25 5.25-5.25 5.25-3 12h2c6.86 12 6.13 22.75 0 35h-2l-2 4c-18.83 18.83-33.76 10.21-52-4-1.75-1.15-3.51-2.31-5.31-3.5C932 795 932 795 932 793l-5-2c-3.58-2.85-7.16-5.71-10.71-8.61-4.46-3.52-9.05-6.78-13.73-10.01C895 767 895 767 895 765l-4-2c-6.94-5.13-13.83-10.3-20.62-15.62A379 379 0 0 0 849 732v-2l-5-2c-3.56-2.82-7.11-5.64-10.63-8.51-4.56-3.64-9.22-7.11-13.93-10.55-7.95-5.82-15.72-11.82-23.44-17.94-6.96-5.39-13.96-10.72-21-16a1815 1815 0 0 1-21-16c-.75-.58-.75-.58-4.56-3.5-21.19-16.71-30.59-30.3-12.44-54.5 12.59-10.49 22.17-11.59 37-5 4.94 0 6.13-8.56 7.98-12.6 1.49-3.25 3.08-6.46 4.71-9.65C789 569 789 569 791.56 562.31 794 556 794 556 798 549c1.7-4.66 3.36-9.32 5-14 1.66-4 3.33-8 5-12 13.88-33.47 23.73-68.59 31.64-103.91.84-3.78 1.71-7.54 2.63-11.3 4.97-20.6 8.39-41.74 10.73-62.79 4.71-4.71 10.77-5.81 17-8 4.34-1.98 8.67-3.98 13-6 1.05-.4 1.05-.4 6.38-2.44 7.38-2.85 14.46-6.19 21.62-9.56l6.94-2.94c7.85-3.4 15.41-7.22 23.06-11.06 8.16-4 16.34-7.96 24.51-11.93 14.67-7.14 29.3-14.26 43.49-22.32 6.62-3.75 13.19-7.35 20-10.75 7.71-4.27 15.35-8.64 23-13 1.56-.89 3.13-1.78 4.74-2.7 57.53-33.01 113.28-69.3 166.99-108.21 3.76-2.72 7.54-5.41 11.33-8.09 6.64-4.79 13.15-9.71 19.64-14.7 4.14-3.18 8.31-6.31 12.49-9.42 7.35-5.53 14.59-11.18 21.81-16.88 8-6 8-6 10-6"/><path fill="#4db050" d="m714 677 4 4 6 4v2l4 2c5.22 3.48 10.07 7.13 15 11 6.88 5.37 13.59 10.37 21 15v2l5 2c5.38 4.29 10.7 8.62 16 13 8.45 6.69 17.17 12.98 25.94 19.25C816 755 816 755 820 759l3 1v2l4 2c7.92 5.35 15.43 11.18 23 17 1.77 1.24 3.55 2.48 5.38 3.75C860 788 860 788 867 794c8 6 8 6 15 10v2l4 2c4.84 3.09 8.93 5.93 13 10l7 5v2l4 2c6 3 6 3 6 5l4 2c11.28 8.16 11.28 8.16 9 15h-2l-1 5c-4 5-4 5-6 5l-2 5c-2.92 3.65-5.85 7.29-8.81 10.91-4.49 5.75-8.26 11.94-12.19 18.09h-2l-2 5c-3 5-3 5-5 5l-2 4c-8.69 14-8.69 14-11 14l-1 4-4 4-5 8h-2l-1 4h-2l-2 4c-3 6-3 6-5 6l-2 5c-7.57 11-7.57 11-10 11l-2 5c-1.91 2.85-3.87 5.66-5.88 8.44-3.45 4.81-6.83 9.63-10.12 14.56h-2l-2 5c-5 7-5 7-7 7l-2 5c-3.64 4.36-7.31 8.69-11 13l-4 6c-3.41 3.41-6.82 6.8-10.25 10.19C780 1046 780 1046 779 1048h-2l-1 3h-2v2c-2.64 2.37-5.31 4.69-8 7l-6 6h-2l-1 3c-2.95 2.4-5.95 4.73-9 7l-8 6h-2v2c-8.4 6-8.4 6-11 6v2c-2.98 1.7-5.99 3.36-9 5-2.72 1.73-5.44 3.46-8.25 5.25C702 1107 702 1107 697 1108v2l-7 3-4 3h-4v2l-9 2v2c-5.69 2.44-11.09 4.25-17 6l-8 3c-12.14 4.37-24.48 7.43-37.01 10.45C605 1143 605 1143 601 1145c-4.72.59-9.45 1.1-14.19 1.56-13.71 1.34-13.71 1.34-14.81 2.44-7.53 1.64-14.49 2.21-22.19 2.05-2.08-.05-4.16-.09-6.3-.13-1.08-.03-1.08-.03-6.51-.17l-6.51-.12c-9.76-.22-18.89-.79-28.49-2.63-4.33-.35-8.67-.68-13-1l-3-1-9.38-.94C467 1144 467 1144 462 1142c-2.37-.45-4.74-.91-7.19-1.38-6.49-1.35-11.75-3.08-17.81-5.62l-9-2c-4.36-1.61-8.69-3.28-13-5-1.71-.68-3.42-1.36-5.19-2.06-1.59-.64-3.17-1.28-4.81-1.94l-5-1.94c-5.15-2.12-10.05-4.52-15-7.06-1.69-.83-3.38-1.65-5.12-2.5-6.71-3.44-12.95-7.55-19.32-11.56C354 1097 354 1097 345 1093l-4-4c-2.39-1.69-4.78-3.38-7.25-5.12C327 1079 327 1079 327 1077l-4-1v-2l-4-2c-7-5-7-5-7-7l-3-1v-2l-4-2c-4-3-4-3-4-5l-5-2-5-7-2-1v-2l-4-2v-2h-2c-5-6-5-6-5-8 4 1 4 1 9 4 5.31 1.73 10.65 3.39 16 5 1.84.56 3.67 1.11 5.56 1.69 29.53 8.73 69.39 8.33 97.44-5.69 7-2 7-2 12-3v-2c4.65-2.04 9.32-4.03 14-6 1.15-.66 1.15-.66 7-4l5-1 1-3 6-2v-2h3v-2c3.97-3.03 7.98-6.03 12-9l3-3h2v-2h2v-2c2.66-2.34 5.33-4.67 8-7l6-7c.82-.66.82-.66 5-4l3-6h2l1-4h2l2-4c1.55-2 3.09-4 4.69-6.06C512 950 512 950 515.38 944.69c3.13-4.91 6.42-9.49 9.93-14.13C531 923 531 923 533 919h2l1-4 3-3c.5-.83.5-.83 3-5 3-3.97 5.99-7.95 8.99-11.92 3.6-4.88 6.83-9.92 10.01-15.08 5.75-9 5.75-9 8-9l2-4c6.86-12 6.86-12 10-12l1-4c4-6 4-6 6-6l2-4c3.73-6.06 7.44-11.52 12-17l1-3h2l2-5c5-7 5-7 7-7l2-6c2.29-2.7 4.62-5.37 7-8l2-4h2l1-4h2l2-4c5.71-10 5.71-10 8-10l2-5c2-3 2-3 4-3l1-4h2l2-5c3.3-4.36 6.64-8.69 10-13 .88-1.23.88-1.23 5.31-7.44C671 729 671 729 676 723l4-7c2.65-3.35 5.31-6.68 8-10 22.15-29.77 22.15-29.77 26-29"/></svg>